P2
32 30
255
75 51 112 145 76 35 136 187 111 73
60 159 61 119 154 159 100 27 145 150
176 67 137 121 68 167 131 184 151 121
169 136 161 77 170 90 54 152 44 85
40 136 116 144 98 106 123 44 27 112
131 47 153 74 43 90 172 136 29 78
145 100 58 153 174 91 155 62 167 135
28 32 113 56 36 59 169 137 73 27
39 56 182 178 189 45 139 70 71 36
143 33 113 184 65 124 84 86 34 187
53 79 121 84 125 56 147 121 139 103
78 171 120 28 44 85 96 61 48 150
28 93 136 163 160 155 56 109 181 91
175 31 130 113 97 63 146 65 92 128
107 65 143 177 52 59 26 31 56 31
111 155 112 152 156 184 185 186 45 172
46 151 32 58 49 36 186 93 169 30
65 189 94 182 109 174 113 81 91 111
118 50 47 156 121 153 142 169 46 57
45 80 120 169 159 148 119 142 147 152
46 178 146 166 88 146 130 128 74 97
78 138 53 138 72 92 39 185 110 157
42 83 128 50 188 53 171 183 99 164
162 27 161 180 32 57 146 169 137 90
68 191 117 89 79 103 186 114 86 172
105 125 149 88 77 170 183 73 121 74
115 45 100 69 187 136 75 184 143 95
34 77 43 173 164 112 100 51 171 128
176 35 98 81 164 111 98 132 129 101
179 65 171 114 43 86 53 166 118 90
176 108 87 107 87 148 102 68 99 123
138 49 186 61 187 70 135 131 111 178
139 107 191 72 32 54 88 168 186 147
104 157 29 71 99 114 169 104 176 183
79 66 75 171 105 93 102 78 131 55
141 34 123 38 163 142 172 105 47 113
169 72 106 180 62 91 123 193 124 73
143 46 169 85 58 189 168 37 121 81
111 114 171 39 171 46 129 93 45 157
150 78 71 113 64 37 177 86 115 235
191 101 91 155 201 56 105 177 75 149
141 33 151 22 84 57 109 83 157 64
93 173 34 46 78 186 39 189 222 149
255 122 113 90 192 143 165 150 157 85
145 106 147 175 78 137 50 183 70 66
44 57 100 56 114 78 61 145 94 179
86 186 91 158 173 160 186 147 172 193
129 65 92 34 46 61 169 51 27 170
109 103 40 41 40 77 142 69 141 174
82 88 112 121 195 183 205 120 64 209
177 112 155 88 33 77 96 113 155 39
140 162 53 141 172 149 153 66 32 151
141 153 179 91 72 182 179 101 132 158
180 58 58 66 126 115 28 185 137 104
98 83 68 172 134 100 46 184 131 28
175 76 136 81 174 51 192 80 94 124
45 46 67 73 103 87 80 30 95 71
31 161 66 55 34 96 175 47 148 92
144 149 89 148 178 75 86 52 100 50
90 172 136 133 138 168 175 79 81 22
38 42 64 105 181 190 66 115 145 85
184 126 183 145 41 141 42 37 109 156
145 45 186 119 51 141 124 118 50 17
160 62 64 71 104 41 154 181 94 174
96 158 176 32 143 168 59 139 122 118
126 106 145 35 48 155 142 23 138 90
61 175 61 153 143 145 48 104 61 75
159 118 183 127 34 67 131 62 137 157
48 101 173 53 101 162 104 78 139 112
47 61 171 115 157 146 48 84 131 69
169 37 181 118 148 81 175 157 121 113
77 186 46 54 31 82 136 174 166 137
18 139 129 35 121 155 55 85 188 82
174 131 140 168 33 169 118 81 172 36
61 125 173 180 141 57 60 156 89 154
125 108 99 77 91 79 121 37 147 200
126 174 54 128 51 149 104 95 103 107
90 107 41 35 44 137 52 167 51 55
26 84 145 145 100 91 151 96 169 95
148 120 105 179 74 30 105 41 177 190
158 169 127 116 42 106 55 89 101 61
195 141 161 39 79 171 51 82 144 185
95 100 136 73 110 114 116 60 189 85
181 29 94 186 64 184 109 124 98 91
157 49 36 49 123 30 143 142 178 68
83 144 113 169 44 126 116 46 122 153
169 142 158 159 139 79 183 139 180 71
86 57 123 65 127 135 106 22 119 53
105 49 38 168 128 54 130 122 69 174
56 77 174 174 122 45 102 171 148 88
83 158 167 40 167 49 184 189 38 160
137 151 0 140 79 129 170 164 174 44
137 130 94 128 118 64 90 182 122 37
91 74 198 132 55 82 133 49 69 135
118 38 130 51 89 129 95 132 183 196
142 161 34 68 75 74 46 120 63 43

